PathFileType	4	(X/Y/Z)	Patient4_TMGait_0pt7_02_right_08.trc.trc
DataRate	CameraRate	NumFrames	NumMarkers	Units	OrigDataRate	OrigDataStartFrame	OrigNumFrames
85.889570552147	85.889570552147	4	33	mm	85.889570552147	18	       141
Frame#	Time	Sacral			L.Shoulder			Chest			R.Shoulder			Neck			R.ASIS			L.ASIS			R.Thigh.Superior			R.Thigh.Lateral			R.Thigh.Inferior			R.Patella			L.Thigh.Superior			L.Thigh.Lateral			L.Thigh.Inferior			L.Patella			L.Shank.Superior			L.Shank.Lateral			L.Shank.Inferior			R.Shank.Superior			R.Shank.Lateral			R.Shank.Inferior			R.Heel			R.Midfoot.Superior			R.Midfoot.Lateral			R.Toe			L.Heel			L.Midfoot.Lateral			L.Midfoot.Superior			L.Toe			L.Elbow			L.Wrist			R.Elbow			R.Wrist			
		X1	Y1	Z1	X2	Y2	Z2	X3	Y3	Z3	X4	Y4	Z4	X5	Y5	Z5	X6	Y6	Z6	X7	Y7	Z7	X8	Y8	Z8	X9	Y9	Z9	X10	Y10	Z10	X11	Y11	Z11	X12	Y12	Z12	X13	Y13	Z13	X14	Y14	Z14	X15	Y15	Z15	X16	Y16	Z16	X17	Y17	Z17	X18	Y18	Z18	X19	Y19	Z19	X20	Y20	Z20	X21	Y21	Z21	X22	Y22	Z22	X23	Y23	Z23	X24	Y24	Z24	X25	Y25	Z25	X26	Y26	Z26	X27	Y27	Z27	X28	Y28	Z28	X29	Y29	Z29	X30	Y30	Z30	X31	Y31	Z31	X32	Y32	Z32	X33	Y33	Z33	

18	8.387928571429	770.331457601830	1006.797648349618	443.421516424445	989.767186450616	1428.057959214433	275.484842824482	1074.001657768184	1349.228695823527	444.147880127597	980.049309134983	1431.997393338292	608.900111674776	981.663079077631	1486.558968563576	428.074423101249	986.271575509050	936.311362149691	577.657486868196	992.862617910256	956.689610263889	301.258416975455	1067.135039155149	776.234145125086	554.578555311795	1032.125244787950	654.750070063406	634.578195645715	1126.068083935268	621.176214999872	558.567223065698	1165.277795026617	534.765056970550	583.139243644565	992.867739991855	731.181208227889	328.202274658356	876.101005862858	639.039743944792	262.852898704633	934.176952163034	543.981321218338	326.594325227052	920.125615145541	479.241456151467	335.613550379704	889.118064161585	414.392524804732	327.246763477711	792.711921793280	305.857265259106	275.402421410934	835.420619560303	192.281464443478	349.706561640861	1141.732729210823	444.716030484354	593.372983059014	1077.515578209033	336.623777130261	656.553049806177	1142.282319773171	244.505969632128	610.579871267536	1037.965701971167	64.458414807522	582.839785927851	1204.678616180589	127.846578787896	627.887099292239	1120.393685895493	55.952175400126	657.313699027755	1325.078531534755	82.179697785477	655.683273913096	699.983722253941	39.373014845475	391.687249498270	775.474870107657	35.406496557355	312.675235300662	858.217679043578	95.454060286018	340.702301385348	987.448794852400	41.682716298206	315.809155849857	1034.903371175286	1106.851300870281	116.259422537254	1284.200276851485	1083.717220845004	162.134139955548	833.627883108342	1121.032860083319	728.193319933095	801.208691982576	861.711710668775	753.474778935630	
19	8.399571428571	772.151107447578	1004.349445347081	445.259677750451	990.105480595750	1426.301064515776	277.879333328542	1074.422719847290	1347.470643772319	446.549107892015	980.159247454761	1430.099444547793	611.152384222473	981.903103510482	1484.550703542994	430.339622723872	988.134445014925	933.646929891005	579.488831514778	994.683524656217	955.339489433097	302.835488064002	1066.967956367380	771.483333133279	556.383340326086	1029.706636492214	649.941884307413	635.569056351189	1123.716235607663	615.962942348254	559.842429754187	1162.129167722772	530.950080582961	583.486719583774	991.044678966085	728.919649787293	329.254275897220	872.514907014629	638.720450540460	263.289071744989	928.756293718990	542.660955748869	327.108253141281	914.161519720039	478.100784774982	335.708263165556	882.375690635124	413.951753545304	327.324656846192	785.252043604359	305.969475201556	275.429624985503	827.537668816609	192.068644322441	349.640537902068	1141.084226272139	440.979378269980	593.788027020783	1079.695842167398	330.697343699030	656.154522597796	1147.811376169553	240.701954966207	610.237849228982	1049.206705954854	57.667506976223	581.474456595168	1214.085122658737	125.516467951258	627.104991236601	1131.566158602831	51.539636316255	656.369726725717	1335.762800639412	83.206226344354	655.553679480334	691.730581627880	39.247868298338	391.665630578740	767.217644093013	35.316259412438	312.654660969238	849.913594090750	95.392102661802	340.696498831122	979.181958768652	41.633798224201	315.818131495977	1036.383149850163	1106.794954375765	116.576967620196	1285.265543081872	1093.601376717687	165.470659123412	826.498826674543	1123.762508350592	730.404400171174	786.979003861980	865.709761046062	754.992801467952	
20	8.411214285714	774.095840164321	1001.675168315499	447.421381595764	990.393595685056	1424.315404698453	280.379148121023	1074.885625509686	1345.605763679597	449.085619555446	980.291568937591	1428.124673247893	613.560116769247	982.136667259051	1482.392002439229	432.709172022841	990.224533167402	930.798471932776	581.478017767034	996.616400746665	953.778019055711	304.645503149704	1067.366450912042	766.787689294068	558.345793632123	1027.683530922599	645.089060047205	636.382499214562	1121.941691943865	610.879228145244	561.130878300899	1159.348476905914	526.890484187335	583.694870575324	989.625217008617	726.597950122738	330.444967780144	869.514403914254	638.211535381988	263.927440406748	924.037836414300	541.224648236115	327.842556182671	908.913035347571	476.750570991573	336.053372486168	876.270327833874	413.266563820888	327.620677756081	778.266385819332	306.021085466319	275.595338828262	819.829592360072	191.701048226061	349.672169756610	1140.259222139684	436.924604396244	594.004341153793	1080.796621466166	325.020835739030	655.361403009701	1151.467629635817	236.751427953934	609.523783801088	1056.970802215029	52.172056132688	579.687855721501	1220.488958067567	122.679051288832	625.811610429077	1139.073441761711	47.709756284018	655.048851013483	1342.892750222083	82.541548566110	654.983858452592	683.472314653303	39.068107533571	391.628180244487	758.972037594778	35.188548410392	312.628034981459	841.606564806907	95.306030220922	340.719450055028	970.941808883111	41.560647132027	315.821474789308	1037.418374411291	1106.286475592851	117.144429941167	1285.554860717619	1102.392267914026	168.828947471446	819.892529899893	1126.342593240757	732.657247161738	774.254820077721	869.515528279451	756.205826378947	
21	8.422857142857	776.101752163316	998.879141715562	449.890393896339	990.660763171827	1422.161385310750	282.983605691701	1075.411484014929	1343.686015390848	451.748871040986	980.470189710465	1426.112758662200	616.118212368336	982.405890528110	1480.153736823682	435.200154760981	992.477954700506	927.852303246352	583.608812964213	998.603692454187	952.048650590631	306.694172332814	1068.359742765600	762.332414646689	560.445155036982	1026.149995826245	640.376971480306	637.007549686932	1120.843885381461	606.135478685412	562.420565009333	1157.084251519066	522.768372135477	583.763107422312	988.692155887008	724.271033443191	331.794684496431	867.203821265631	637.503246573226	264.826796221506	920.171735809259	539.675540027882	328.842987467425	904.523001040506	475.177954982052	336.714071960529	870.939839644395	412.297889548879	328.195506370330	771.870174798214	306.016547938063	275.945667042402	812.353287904665	191.169790176716	349.832041518577	1139.386681923576	432.714994792124	594.026408928398	1080.964276174248	319.731634358872	654.277813545391	1153.346314235952	232.716799994843	608.499233687731	1061.235575279536	47.930666261473	577.646799174952	1223.962104463298	119.357356111044	624.099888421013	1142.966219613582	44.461091425848	653.495851724198	1346.620191133597	80.220463379149	654.028843159463	675.209122187349	38.863949714742	391.566766607948	750.743227418467	35.031732904192	312.596677665153	833.316330029351	95.199170777593	340.771776367579	962.738890054129	41.455938122985	315.816758046434	1037.989799649779	1105.329418441211	118.013126889372	1285.152305924544	1109.992350532853	172.175983400262	813.963432349072	1128.651896369749	734.914443410076	762.974472509156	872.968179382022	757.224922636535	
